<svg width="244" height="255" xmlns="http://www.w3.org/2000/svg">

 <g id="imagebot_2">
  <title>imagebot_2</title>
  <path transform="matrix(0.664726 0 0 0.664726 -112.819 -209.283)" stroke-linejoin="round" stroke="#000000" stroke-linecap="round" stroke-width="4" fill="#ffffff" d="M 471.2331331558188 551.663444392083 C 471.25354982328014 618.4812471669891 416.38375602078037 672.6711906844356 348.6922950525244 672.6711906844356 S 226.1412486154993 618.4812471669891 226.1616652829607 551.663444392083 C 226.1412486154993 484.83556351721074 281.0008340842684 430.6456199997642 348.6922950525244 430.6456199997642 S 471.25354982328014 484.83556351721074 471.2331331558188 551.663444392083 z" id="imagebot_18"/>
  <g transform="matrix(0.664726 0 0 0.664726 -29.7951 77.3401)" id="imagebot_28">
   <path transform="matrix(0.980291 0.19756 -0.19756 0.980291 -1.30315 -31.3661)" d="M 132.9143502050639 106.57836564773035 L 132.9143502050639 106.57836564773035 C 132.9143502050639 42.01543934689383 185.75039089654854 -10.323192964509225 250.92690106777653 -10.323192964509225 L 250.92690106777653 -10.323192964509225 C 282.22557202376186 -10.323192964509225 312.24273756165417 1.993210038220056 334.3744390960922 23.91648897879685 C 356.5061564711411 45.839767919373756 368.93945193048916 75.5743462404829 368.93945193048916 106.57836564773035 L 368.93945193048916 106.57836564773035 C 368.93945193048916 171.14097027313713 316.103086506482 223.47992425996995 250.92690106777653 223.47992425996995 L 250.92690106777653 223.47992425996995 C 185.75039089654854 223.47992425996995 132.9143502050639 171.14097027313713 132.9143502050639 106.57836564773035 z" id="imagebot_24" fill-opacity="null" stroke-opacity="0" stroke-linecap="round" stroke-linejoin="round" stroke-dasharray="null" stroke-width="3" stroke="#000000" fill="#ccc"/>
   <path transform="matrix(0.980291 0.19756 -0.19756 0.980291 -1.30315 -31.3661)" d="M 131.7258012461514 97.86781691510029 L 131.7258012461514 97.86781691510029 C 131.7258012461514 37.517506748740516 184.9457570609295 -11.406122873594427 250.59585018066662 -11.406122873594427 L 250.59585018066662 -11.406122873594427 C 282.12194228633933 -11.406122873594427 312.3572173505621 0.10665673439811485 334.6497313685263 20.599480708368006 C 356.94226134220185 41.09230468233797 369.46589911518186 68.88675464241678 369.46589911518186 97.86781691510029 L 369.46589911518186 97.86781691510029 C 369.46589911518186 158.21782639478013 316.24561620832276 207.14175670379507 250.59585018066662 207.14175670379507 L 250.59585018066662 207.14175670379507 C 184.9457570609295 207.14175670379507 131.7258012461514 158.21782639478013 131.7258012461514 97.86781691510029 z" id="imagebot_25" stroke-opacity="0" stroke-linecap="round" stroke-linejoin="round" stroke-dasharray="null" stroke-width="3" stroke="#000000" fill="#ffffff"/>
  </g>
  <path transform="matrix(0.664726 0 0 0.664726 39.1237 84.1469)" stroke-linejoin="round" stroke="#000000" stroke-linecap="round" stroke-width="4" fill="#333333" d="M 119.38999877929689 -75.55760469675062 C 89.2599987792969 -74.94760469675066 68.45999877929688 -63.90760469675064 55.769998779296884 -46.807604696750616 C 31.69999877929689 -49.39760469675065 11.699998779296862 -23.187604696750668 11.699998779296862 -23.187604696750668 S 30.589998779296877 -13.737604696750623 43.769998779296884 -21.64760469675059 C 41.36999877929685 -12.937604696750668 40.19999877929689 -3.547604696750682 40.19999877929689 6.252395303249386 C 40.19999877929689 51.432395303249336 96.32999877929689 88.10239530324941 122.04999877929686 88.10239530324941 C 148.7599987792969 88.10239530324941 203.8899987792969 51.432395303249336 203.8899987792969 6.252395303249386 C 203.8899987792969 -3.547604696750682 202.72999877929686 -12.937604696750668 200.3299987792969 -21.64760469675059 C 213.4999987792969 -13.737604696750623 232.35999877929686 -23.187604696750668 232.35999877929686 -23.187604696750668 S 212.3899987792969 -49.38760469675066 188.3299987792969 -46.807604696750616 C 175.26999877929688 -64.40760469675064 153.61999877929685 -75.55760469675062 122.04999877929686 -75.55760469675062 C 121.14999877929688 -75.55760469675062 120.26999877929688 -75.57760469675065 119.38999877929689 -75.55760469675062 z" id="imagebot_12"/>
  <path transform="matrix(0.664726 0 0 0.664726 -114.096 -281.18)" fill="#000000" fill-opacity="0.31373" d="M429.83,533.41L427.96,536.07C428.2,539.14 428.3,542.27 428.3,545.44C428.3,590.62 373.17,627.28 346.46,627.28C325.75,627.28 285.36,603.53 270.39,570.69C278.01,610.94 327.56,642.07 351.27,642.07C377.98,642.07 433.11,605.4 433.11,560.22C433.11,550.83 432.04,541.81 429.83,533.41z" id="imagebot_6"/>
  <g transform="matrix(0.664726 0 0 0.664726 37.8474 80.3181)" id="imagebot_30">
   <path transform="translate(0 0.64) matrix(1 0 0 1 -229.22 -556.63)" stroke-linejoin="round" stroke="#000000" stroke-linecap="round" stroke-width="4" fill="#ffffff" d="M347.64,548.24C347.65,560.75 337.5,570.91 324.98,570.91S302.31,560.75 302.32,548.24C302.31,535.72 312.46,525.57 324.98,525.57S347.65,535.72 347.64,548.24z" id="imagebot_10"/>
   <path transform="translate(0 0.64) matrix(1 0 0 1 -229.22 -556.63)" stroke-linejoin="round" stroke="#000000" stroke-linecap="round" stroke-width="4" fill="#ffffff" d="M400.38,548.24C400.38,560.75 390.23,570.91 377.71,570.91S355.05,560.75 355.05,548.24C355.05,535.72 365.19,525.57 377.71,525.57S400.38,535.72 400.38,548.24z" id="imagebot_9"/>
  </g>
  <path transform="translate(0.64 0) matrix(0.664726 0 0 0.664726 -113.485 -291.217)" fill="#000000" d="M380.23,552.24C380.23,556.41 376.85,559.79 372.68,559.79C368.5,559.79 365.12,556.41 365.12,552.24C365.12,548.06 368.5,544.68 372.68,544.68C376.85,544.68 380.23,548.06 380.23,552.24z" id="imagebot_8"/>
  <path transform="translate(0.64 0) matrix(0.664726 0 0 0.664726 -25.3026 62.6233)" fill="#000000" d="M 199.8600066423416 19.929997792243967 C 199.8600066423416 24.099997792243926 196.4800066423416 27.47999779224392 192.3100066423416 27.47999779224392 C 188.13000664234164 27.47999779224392 184.7500066423416 24.099997792243926 184.7500066423416 19.929997792243967 C 184.7500066423416 15.749997792243903 188.13000664234164 12.369997792243907 192.3100066423416 12.369997792243907 C 196.4800066423416 12.369997792243907 199.8600066423416 15.749997792243903 199.8600066423416 19.929997792243967 z" id="imagebot_7"/>
  <g transform="matrix(0.664726 0 0 0.664726 -129.77 63.7265)" id="imagebot_32">
   <path transform="matrix(1 0 0 1 21.02 -531.67)" fill="#000000" d="M367.87,612.87C365.58,616.84 361.37,618.71 358.47,617.03C355.58,615.36 355.09,610.78 357.38,606.81S363.88,600.97 366.78,602.65C369.67,604.32 370.16,608.89 367.87,612.87z" id="imagebot_5"/>
   <path transform="matrix(1 0 0 1 21.02 -531.67)" fill="#000000" d="M335.13,612.87C337.42,616.84 341.63,618.71 344.53,617.03C347.42,615.36 347.91,610.78 345.62,606.81S339.12,600.97 336.22,602.65C333.33,604.32 332.84,608.89 335.13,612.87z" id="imagebot_4"/>
  </g>
  <g transform="matrix(0.664726 0 0 0.664726 39.9746 80.5969)" id="imagebot_34">
   <path transform="matrix(1 0 0 1 -0.64 -8.32)" stroke-linejoin="round" stroke="#000000" stroke-linecap="round" stroke-width="4" fill="#333333" d="M 99.33776326320422 256.99271782636356 C 99.1416740283499 266.143660269931 84.46087616246098 266.05974752192105 66.3852814912724 265.5967798255757 S 33.630263261092566 265.45283732482267 33.84749302951755 255.31532462881347 C 34.229748391631844 237.4765237377229 49.20449226142121 223.37571613812207 67.28008693260989 223.83868383446747 S 99.7200186253185 239.153916935273 99.33776326320422 256.99271782636356 z" id="imagebot_15"/>
   <path transform="matrix(1 0 0 1 -0.64 -8.32)" stroke-linejoin="round" fill-rule="evenodd" fill-opacity="0.31373" stroke="#000000" stroke-width="4" fill="#000000" d="M 48.827997098890535 261.2499141009436 C 49.22944795477946 244.7714734061405 58.918681036892224 234.90466746276064 58.918681036892224 234.90466746276064 S 54.808118740125906 248.73862580443955 55.12951919156552 261.43003891827885 L 48.827997098890535 261.2499141009436 z" id="imagebot_14"/>
  </g>
  <g id="imagebot_115" transform="rotate(26.1951 192.268 161.189) matrix(0.664726 0 0 0.664726 42.25 -1.29297)">
   <path id="imagebot_116" transform="matrix(0.999958 0.00916296 -0.00916296 0.999958 -160.434 -419.396)" stroke-linejoin="round" stroke="#000000" stroke-linecap="round" stroke-width="4" fill="#333333" d="M359.45,671.28C359.45,680.37 374.12,680.66 392.19,680.66S424.92,681.35 424.92,671.28C424.92,653.56 410.26,639.18 392.19,639.18S359.45,653.56 359.45,671.28z"/>
   <path id="imagebot_117" transform="matrix(0.999958 0.00916296 -0.00916296 0.999958 -160.434 -419.396)" stroke-linejoin="round" fill-rule="evenodd" fill-opacity="0.31373" stroke="#000000" stroke-width="4" fill="#000000" d="M404.78,680.06C404.78,663.69 395.34,653.62 395.34,653.62S399.11,667.47 398.48,680.06L404.78,680.06z"/>
  </g>

  <metadata id="imagebot_412">image/svg+xmlToque2004-08-09Jean-Victor Balinfr-FRhatkitchenjean.victor.balin@gmail.com</metadata>
  <g transform="rotate(49.3315 49.1586 167.182) matrix(1 0 0 1 -13.44 8.32)" id="imagebot_465">
   <path id="imagebot_113" transform="matrix(0.312829 -0.586514 0.586514 0.312829 -101.814 121.4)" stroke-linejoin="round" stroke="#000000" stroke-linecap="round" stroke-width="4" fill="#333333" d="M99.33776,256.99272C99.14167,266.14366 84.46088,266.05975 66.38528,265.59678S33.63026,265.45284 33.84749,255.31532C34.22975,237.47652 49.20449,223.37572 67.28009,223.83868S99.72002,239.15392 99.33776,256.99272z"/>
   <path id="imagebot_114" transform="matrix(0.312829 -0.586514 0.586514 0.312829 -101.814 121.4)" stroke-linejoin="round" fill-rule="evenodd" fill-opacity="0.31373" stroke="#000000" stroke-width="4" fill="#000000" d="M48.828,261.24991C49.22945,244.77147 58.91868,234.90467 58.91868,234.90467S54.80812,248.73863 55.12952,261.43004L48.828,261.24991z"/>
  </g>
  <g transform="rotate(13.0551 153.814 238.124) matrix(1 0 0 1 -2.56 14.72)" id="imagebot_480">
   <path transform="matrix(0.63995 -0.179792 0.179792 0.63995 -213.315 -128.62)" stroke-linejoin="round" stroke="#000000" stroke-linecap="round" stroke-width="4" fill="#333333" d="M359.45,671.28C359.45,680.37 374.12,680.66 392.19,680.66S424.92,681.35 424.92,671.28C424.92,653.56 410.26,639.18 392.19,639.18S359.45,653.56 359.45,671.28z" id="imagebot_16"/>
   <path transform="matrix(0.63995 -0.179792 0.179792 0.63995 -213.315 -128.62)" stroke-linejoin="round" fill-rule="evenodd" fill-opacity="0.31373" stroke="#000000" stroke-width="4" fill="#000000" d="M404.78,680.06C404.78,663.69 395.34,653.62 395.34,653.62S399.11,667.47 398.48,680.06L404.78,680.06z" id="imagebot_11"/>
  </g>
 </g>
 <metadata>image/svg+xmlOpenclipartCartoon sheep2008-07-07T20:04:15A very round sheep :)https://openclipart.org/detail/17637/cartoon-sheep-by-lemmlinglemmlinganimalcartooncolourfunnyhow i did itmammalsheep</metadata>
</svg>